<mxfile host="Electron" modified="2023-11-09T19:51:38.506Z" agent="Mozilla/5.0 (Windows NT 10.0; Win64; x64) AppleWebKit/537.36 (KHTML, like Gecko) draw.io/22.0.3 Chrome/114.0.5735.289 Electron/25.8.4 Safari/537.36" etag="5ic_GVHvIIMWq9WbcAdT" version="22.0.3" type="device">
  <diagram name="Page-1" id="QTJ4yp2bboPgsS11suuI">
    <mxGraphModel dx="819" dy="505" grid="1" gridSize="10" guides="1" tooltips="1" connect="1" arrows="1" fold="1" page="1" pageScale="1" pageWidth="850" pageHeight="1100" math="1" shadow="0">
      <root>
        <mxCell id="0" />
        <mxCell id="1" parent="0" />
        <mxCell id="v_Jrfp-xwoIuEIgAh1ZI-1" value="" style="endArrow=classic;html=1;rounded=0;" parent="1" edge="1">
          <mxGeometry width="50" height="50" relative="1" as="geometry">
            <mxPoint x="240" y="360" as="sourcePoint" />
            <mxPoint x="240" y="200" as="targetPoint" />
          </mxGeometry>
        </mxCell>
        <mxCell id="v_Jrfp-xwoIuEIgAh1ZI-2" value="" style="endArrow=classic;html=1;rounded=0;" parent="1" edge="1">
          <mxGeometry width="50" height="50" relative="1" as="geometry">
            <mxPoint x="240" y="360" as="sourcePoint" />
            <mxPoint x="560" y="360" as="targetPoint" />
          </mxGeometry>
        </mxCell>
        <mxCell id="v_Jrfp-xwoIuEIgAh1ZI-13" value="" style="endArrow=none;dashed=1;html=1;rounded=0;" parent="1" edge="1">
          <mxGeometry width="50" height="50" relative="1" as="geometry">
            <mxPoint x="240" y="400" as="sourcePoint" />
            <mxPoint x="240" y="360" as="targetPoint" />
          </mxGeometry>
        </mxCell>
        <mxCell id="v_Jrfp-xwoIuEIgAh1ZI-14" value="" style="endArrow=none;dashed=1;html=1;rounded=0;" parent="1" edge="1">
          <mxGeometry width="50" height="50" relative="1" as="geometry">
            <mxPoint x="200" y="360" as="sourcePoint" />
            <mxPoint x="240" y="360" as="targetPoint" />
          </mxGeometry>
        </mxCell>
        <mxCell id="v_Jrfp-xwoIuEIgAh1ZI-15" value="$$0$$" style="text;html=1;strokeColor=none;fillColor=none;align=center;verticalAlign=middle;whiteSpace=wrap;rounded=0;" parent="1" vertex="1">
          <mxGeometry x="210" y="360" width="30" height="30" as="geometry" />
        </mxCell>
        <mxCell id="v_Jrfp-xwoIuEIgAh1ZI-16" value="$$1$$" style="text;html=1;strokeColor=none;fillColor=none;align=center;verticalAlign=middle;whiteSpace=wrap;rounded=0;" parent="1" vertex="1">
          <mxGeometry x="270" y="360" width="20" height="20" as="geometry" />
        </mxCell>
        <mxCell id="v_Jrfp-xwoIuEIgAh1ZI-17" value="$$1$$" style="text;html=1;strokeColor=none;fillColor=none;align=center;verticalAlign=middle;whiteSpace=wrap;rounded=0;" parent="1" vertex="1">
          <mxGeometry x="220" y="310" width="20" height="20" as="geometry" />
        </mxCell>
        <mxCell id="v_Jrfp-xwoIuEIgAh1ZI-18" value="$$2$$" style="text;html=1;strokeColor=none;fillColor=none;align=center;verticalAlign=middle;whiteSpace=wrap;rounded=0;" parent="1" vertex="1">
          <mxGeometry x="310" y="360" width="20" height="20" as="geometry" />
        </mxCell>
        <mxCell id="v_Jrfp-xwoIuEIgAh1ZI-19" value="$$2$$" style="text;html=1;strokeColor=none;fillColor=none;align=center;verticalAlign=middle;whiteSpace=wrap;rounded=0;" parent="1" vertex="1">
          <mxGeometry x="220" y="270" width="20" height="20" as="geometry" />
        </mxCell>
        <mxCell id="v_Jrfp-xwoIuEIgAh1ZI-20" value="$$3$$" style="text;html=1;strokeColor=none;fillColor=none;align=center;verticalAlign=middle;whiteSpace=wrap;rounded=0;" parent="1" vertex="1">
          <mxGeometry x="350" y="360" width="20" height="20" as="geometry" />
        </mxCell>
        <mxCell id="v_Jrfp-xwoIuEIgAh1ZI-21" value="$$3$$" style="text;html=1;strokeColor=none;fillColor=none;align=center;verticalAlign=middle;whiteSpace=wrap;rounded=0;" parent="1" vertex="1">
          <mxGeometry x="220" y="230" width="20" height="20" as="geometry" />
        </mxCell>
        <mxCell id="v_Jrfp-xwoIuEIgAh1ZI-22" value="$$4$$" style="text;html=1;strokeColor=none;fillColor=none;align=center;verticalAlign=middle;whiteSpace=wrap;rounded=0;" parent="1" vertex="1">
          <mxGeometry x="390" y="360" width="20" height="20" as="geometry" />
        </mxCell>
        <mxCell id="v_Jrfp-xwoIuEIgAh1ZI-23" value="$$5$$" style="text;html=1;strokeColor=none;fillColor=none;align=center;verticalAlign=middle;whiteSpace=wrap;rounded=0;" parent="1" vertex="1">
          <mxGeometry x="430" y="360" width="20" height="20" as="geometry" />
        </mxCell>
        <mxCell id="v_Jrfp-xwoIuEIgAh1ZI-24" value="$$6$$" style="text;html=1;strokeColor=none;fillColor=none;align=center;verticalAlign=middle;whiteSpace=wrap;rounded=0;" parent="1" vertex="1">
          <mxGeometry x="470" y="360" width="20" height="20" as="geometry" />
        </mxCell>
        <mxCell id="v_Jrfp-xwoIuEIgAh1ZI-25" value="$$7$$" style="text;html=1;strokeColor=none;fillColor=none;align=center;verticalAlign=middle;whiteSpace=wrap;rounded=0;" parent="1" vertex="1">
          <mxGeometry x="510" y="360" width="20" height="20" as="geometry" />
        </mxCell>
        <mxCell id="v_Jrfp-xwoIuEIgAh1ZI-26" value="" style="shape=ellipse;fillColor=#a20025;strokeColor=#6F0000;html=1;sketch=0;fontColor=#ffffff;" parent="1" vertex="1">
          <mxGeometry x="315" y="315" width="10" height="10" as="geometry" />
        </mxCell>
        <mxCell id="v_Jrfp-xwoIuEIgAh1ZI-28" value="" style="shape=ellipse;fillColor=#a20025;strokeColor=#6F0000;html=1;sketch=0;fontColor=#ffffff;" parent="1" vertex="1">
          <mxGeometry x="475" y="235" width="10" height="10" as="geometry" />
        </mxCell>
        <mxCell id="v_Jrfp-xwoIuEIgAh1ZI-29" value="$$A(x_{1},x_{2})$$" style="text;html=1;strokeColor=none;fillColor=none;align=center;verticalAlign=middle;whiteSpace=wrap;rounded=0;" parent="1" vertex="1">
          <mxGeometry x="290" y="285" width="60" height="30" as="geometry" />
        </mxCell>
        <mxCell id="v_Jrfp-xwoIuEIgAh1ZI-30" value="$$B(y_{1},y_{2})$$" style="text;html=1;strokeColor=none;fillColor=none;align=center;verticalAlign=middle;whiteSpace=wrap;rounded=0;" parent="1" vertex="1">
          <mxGeometry x="450" y="205" width="60" height="30" as="geometry" />
        </mxCell>
        <mxCell id="eL_zX_eMLsdBRoZ72USO-1" value="" style="endArrow=none;dashed=1;html=1;rounded=0;exitX=1;exitY=0.5;exitDx=0;exitDy=0;entryX=0;entryY=0.5;entryDx=0;entryDy=0;" edge="1" parent="1" source="v_Jrfp-xwoIuEIgAh1ZI-17" target="v_Jrfp-xwoIuEIgAh1ZI-26">
          <mxGeometry width="50" height="50" relative="1" as="geometry">
            <mxPoint x="250" y="360" as="sourcePoint" />
            <mxPoint x="300" y="310" as="targetPoint" />
          </mxGeometry>
        </mxCell>
        <mxCell id="eL_zX_eMLsdBRoZ72USO-2" value="" style="endArrow=none;dashed=1;html=1;rounded=0;exitX=1;exitY=0.5;exitDx=0;exitDy=0;entryX=0;entryY=0.5;entryDx=0;entryDy=0;" edge="1" parent="1" source="v_Jrfp-xwoIuEIgAh1ZI-21" target="v_Jrfp-xwoIuEIgAh1ZI-28">
          <mxGeometry width="50" height="50" relative="1" as="geometry">
            <mxPoint x="242.5" y="239.70999999999998" as="sourcePoint" />
            <mxPoint x="317.5" y="239.70999999999998" as="targetPoint" />
          </mxGeometry>
        </mxCell>
        <mxCell id="eL_zX_eMLsdBRoZ72USO-3" value="" style="endArrow=none;dashed=1;html=1;rounded=0;exitX=0.5;exitY=0;exitDx=0;exitDy=0;entryX=0.5;entryY=1;entryDx=0;entryDy=0;" edge="1" parent="1" source="v_Jrfp-xwoIuEIgAh1ZI-18" target="v_Jrfp-xwoIuEIgAh1ZI-26">
          <mxGeometry width="50" height="50" relative="1" as="geometry">
            <mxPoint x="260" y="340" as="sourcePoint" />
            <mxPoint x="335" y="340" as="targetPoint" />
          </mxGeometry>
        </mxCell>
        <mxCell id="eL_zX_eMLsdBRoZ72USO-4" value="" style="endArrow=none;dashed=1;html=1;rounded=0;exitX=0.5;exitY=0;exitDx=0;exitDy=0;entryX=0.5;entryY=1;entryDx=0;entryDy=0;" edge="1" parent="1" source="v_Jrfp-xwoIuEIgAh1ZI-24" target="v_Jrfp-xwoIuEIgAh1ZI-28">
          <mxGeometry width="50" height="50" relative="1" as="geometry">
            <mxPoint x="479.71000000000004" y="337.5" as="sourcePoint" />
            <mxPoint x="479.71000000000004" y="302.5" as="targetPoint" />
          </mxGeometry>
        </mxCell>
      </root>
    </mxGraphModel>
  </diagram>
</mxfile>
